# xmcd CD database file
#
# Track frame offsets:
#	150
#	31742
#	74634
#	104728
#	131803
#	166992
#	211352
#	243371
#
# Disc length: 3696 seconds
#
# Revision: 2
# Processed by: cddbd v1.5.2PL0 Copyright (c) Steve Scherf et al.
# Submitted via: CDex 1.51
#
DISCID=750e6e08
DTITLE=Seun Kuti and Egypt 80 - Black Times
DYEAR=2018
DGENRE=Afro Beat
TTITLE0=Last Revolutionary
TTITLE1=Feat.Carlos Santana_Black Times
TTITLE2=Corporate Public Control Department (CPCD)
TTITLE3=Kuku Kee Me
TTITLE4=Bad Man Lighter (BML)
TTITLE5=African Dreams
TTITLE6=Struggle Sounds
TTITLE7=Theory Of Goat And Yam
EXTD=YEAR: 2018
EXTT0=
EXTT1=
EXTT2=
EXTT3=
EXTT4=
EXTT5=
EXTT6=
EXTT7=
PLAYORDER=
